# xmcd
#
# Track frame offsets: 
#        150
#        15809
#        32088
#        47158
#        65463
#        83498
#        100516
#        120368
#        138093
#        158889
#
# Disc length: 2375 seconds
#
# Revision: 0
# Processed by: cddbd v1.5.2PL0 Copyright (c) Steve Scherf et al.
# Submitted via: ExactAudioCopy v0.95b4
#
DISCID=6609450a
DTITLE=โรส บุญเจริญ - ฝากไว้ในใจอ้าย
DYEAR=2006
DGENRE=Country
TTITLE0=เวิร์ก
TTITLE1=บ่อยากเป็นคือมอเตอร์ไซค์
TTITLE2=สาวนาตกกระเทิน
TTITLE3=ฝากไว้ในใจอ้าย
TTITLE4=สาวหล่มสักสะอื้น
TTITLE5=สาวราษีบ่ดีน้อง
TTITLE6=เซิ้งแข่งเรือ
TTITLE7=แม่ค้าขายผัก
TTITLE8=หมาจอกต้องน้องสะเดิด
TTITLE9=เตือนใจในวัยเรียน
EXTD=
EXTT0=
EXTT1=
EXTT2=
EXTT3=
EXTT4=
EXTT5=
EXTT6=
EXTT7=
EXTT8=
EXTT9=
PLAYORDER=
